<svg width="276" height="468" viewBox="0 0 276 468" fill="none" xmlns="http://www.w3.org/2000/svg">
<path d="M0 0H276V468H0V0Z" fill="#61A60E"/>
<path d="M84.1648 233.869H79.9034C79.8466 233.432 79.7301 233.037 79.554 232.685C79.3778 232.332 79.1449 232.031 78.8551 231.781C78.5653 231.531 78.2216 231.341 77.8239 231.21C77.4318 231.074 76.9972 231.006 76.5199 231.006C75.6733 231.006 74.9432 231.213 74.3295 231.628C73.7216 232.043 73.2528 232.642 72.9233 233.426C72.5994 234.21 72.4375 235.159 72.4375 236.273C72.4375 237.432 72.6023 238.403 72.9318 239.188C73.267 239.966 73.7358 240.554 74.3381 240.952C74.946 241.344 75.6648 241.54 76.4943 241.54C76.9602 241.54 77.3835 241.48 77.7642 241.361C78.1506 241.241 78.4886 241.068 78.7784 240.841C79.0739 240.608 79.3153 240.327 79.5028 239.997C79.696 239.662 79.8295 239.284 79.9034 238.864L84.1648 238.889C84.0909 239.662 83.8665 240.423 83.4915 241.173C83.1222 241.923 82.6136 242.608 81.9659 243.227C81.3182 243.841 80.5284 244.33 79.5966 244.693C78.6705 245.057 77.608 245.239 76.4091 245.239C74.8295 245.239 73.4148 244.892 72.1648 244.199C70.9205 243.5 69.9375 242.483 69.2159 241.148C68.4943 239.812 68.1335 238.187 68.1335 236.273C68.1335 234.352 68.5 232.724 69.233 231.389C69.9659 230.054 70.9574 229.04 72.2074 228.347C73.4574 227.653 74.858 227.307 76.4091 227.307C77.4659 227.307 78.4432 227.455 79.3409 227.75C80.2386 228.04 81.0284 228.466 81.7102 229.028C82.392 229.585 82.946 230.27 83.3722 231.082C83.7983 231.895 84.0625 232.824 84.1648 233.869ZM89.9091 245H85.375L91.2642 227.545H96.8807L102.77 245H98.2358L94.1364 231.943H94L89.9091 245ZM89.304 238.131H98.7812V241.335H89.304V238.131ZM104.649 227.545H109.874L114.305 238.352H114.51L118.942 227.545H124.166V245H120.058V234.278H119.913L115.72 244.889H113.095L108.902 234.219H108.757V245H104.649V227.545ZM126.798 245V227.545H134.008C135.315 227.545 136.442 227.801 137.391 228.312C138.346 228.818 139.082 229.526 139.599 230.435C140.116 231.338 140.374 232.389 140.374 233.588C140.374 234.793 140.11 235.847 139.582 236.75C139.059 237.648 138.312 238.344 137.34 238.838C136.369 239.332 135.215 239.58 133.88 239.58H129.431V236.256H133.096C133.732 236.256 134.263 236.145 134.69 235.923C135.121 235.702 135.448 235.392 135.67 234.994C135.891 234.591 136.002 234.122 136.002 233.588C136.002 233.048 135.891 232.582 135.67 232.19C135.448 231.793 135.121 231.486 134.69 231.27C134.258 231.054 133.727 230.946 133.096 230.946H131.016V245H126.798ZM158.928 236.273C158.928 238.193 158.559 239.821 157.82 241.156C157.082 242.491 156.082 243.506 154.82 244.199C153.565 244.892 152.156 245.239 150.593 245.239C149.025 245.239 147.613 244.889 146.357 244.19C145.102 243.491 144.104 242.477 143.366 241.148C142.633 239.812 142.266 238.187 142.266 236.273C142.266 234.352 142.633 232.724 143.366 231.389C144.104 230.054 145.102 229.04 146.357 228.347C147.613 227.653 149.025 227.307 150.593 227.307C152.156 227.307 153.565 227.653 154.82 228.347C156.082 229.04 157.082 230.054 157.82 231.389C158.559 232.724 158.928 234.352 158.928 236.273ZM154.616 236.273C154.616 235.136 154.454 234.176 154.13 233.392C153.812 232.608 153.352 232.014 152.749 231.611C152.153 231.207 151.434 231.006 150.593 231.006C149.758 231.006 149.039 231.207 148.437 231.611C147.835 232.014 147.371 232.608 147.048 233.392C146.729 234.176 146.57 235.136 146.57 236.273C146.57 237.409 146.729 238.369 147.048 239.153C147.371 239.937 147.835 240.531 148.437 240.935C149.039 241.338 149.758 241.54 150.593 241.54C151.434 241.54 152.153 241.338 152.749 240.935C153.352 240.531 153.812 239.937 154.13 239.153C154.454 238.369 154.616 237.409 154.616 236.273ZM170.826 232.778C170.769 232.153 170.516 231.668 170.067 231.321C169.624 230.969 168.991 230.793 168.167 230.793C167.621 230.793 167.167 230.864 166.803 231.006C166.44 231.148 166.167 231.344 165.985 231.594C165.803 231.838 165.71 232.119 165.704 232.438C165.692 232.699 165.744 232.929 165.857 233.128C165.977 233.327 166.147 233.503 166.369 233.656C166.596 233.804 166.869 233.935 167.187 234.048C167.505 234.162 167.863 234.261 168.261 234.347L169.761 234.688C170.624 234.875 171.386 235.125 172.045 235.438C172.71 235.75 173.266 236.122 173.715 236.554C174.17 236.986 174.513 237.483 174.746 238.045C174.979 238.608 175.099 239.239 175.104 239.938C175.099 241.04 174.82 241.986 174.269 242.776C173.718 243.565 172.925 244.17 171.891 244.591C170.863 245.011 169.621 245.222 168.167 245.222C166.707 245.222 165.434 245.003 164.349 244.565C163.263 244.128 162.42 243.463 161.817 242.571C161.215 241.679 160.906 240.551 160.888 239.188H164.928C164.962 239.75 165.113 240.219 165.38 240.594C165.647 240.969 166.013 241.253 166.479 241.446C166.951 241.639 167.496 241.736 168.116 241.736C168.684 241.736 169.167 241.659 169.565 241.506C169.968 241.352 170.278 241.139 170.494 240.866C170.71 240.594 170.82 240.281 170.826 239.929C170.82 239.599 170.718 239.318 170.519 239.085C170.32 238.847 170.013 238.642 169.599 238.472C169.19 238.295 168.667 238.134 168.031 237.986L166.207 237.56C164.695 237.213 163.505 236.653 162.636 235.881C161.766 235.102 161.335 234.051 161.34 232.727C161.335 231.648 161.624 230.702 162.21 229.889C162.795 229.077 163.604 228.443 164.638 227.989C165.673 227.534 166.852 227.307 168.175 227.307C169.528 227.307 170.701 227.537 171.695 227.997C172.695 228.452 173.471 229.091 174.022 229.915C174.573 230.739 174.854 231.693 174.866 232.778H170.826ZM193.71 236.273C193.71 238.193 193.34 239.821 192.602 241.156C191.863 242.491 190.863 243.506 189.602 244.199C188.346 244.892 186.937 245.239 185.374 245.239C183.806 245.239 182.394 244.889 181.138 244.19C179.883 243.491 178.886 242.477 178.147 241.148C177.414 239.812 177.048 238.187 177.048 236.273C177.048 234.352 177.414 232.724 178.147 231.389C178.886 230.054 179.883 229.04 181.138 228.347C182.394 227.653 183.806 227.307 185.374 227.307C186.937 227.307 188.346 227.653 189.602 228.347C190.863 229.04 191.863 230.054 192.602 231.389C193.34 232.724 193.71 234.352 193.71 236.273ZM189.397 236.273C189.397 235.136 189.235 234.176 188.911 233.392C188.593 232.608 188.133 232.014 187.531 231.611C186.934 231.207 186.215 231.006 185.374 231.006C184.539 231.006 183.82 231.207 183.218 231.611C182.616 232.014 182.153 232.608 181.829 233.392C181.511 234.176 181.352 235.136 181.352 236.273C181.352 237.409 181.511 238.369 181.829 239.153C182.153 239.937 182.616 240.531 183.218 240.935C183.82 241.338 184.539 241.54 185.374 241.54C186.215 241.54 186.934 241.338 187.531 240.935C188.133 240.531 188.593 239.937 188.911 239.153C189.235 238.369 189.397 237.409 189.397 236.273ZM196.173 245V227.545H200.391V241.574H207.653V245H196.173Z" fill="white"/>
</svg>
